<?xml version="1.0" encoding="UTF-8"?>
<svg id="svg967" xmlns="http://www.w3.org/2000/svg" xmlns:svg="http://www.w3.org/2000/svg" xmlns:sodipodi="http://sodipodi.sourceforge.net/DTD/sodipodi-0.dtd" xmlns:inkscape="http://www.inkscape.org/namespaces/inkscape" version="1.1" viewBox="0 0 573 438">
  <defs>
    <style>
      .cls-1 {
        fill: #01a99d;
      }

      .cls-1, .cls-2, .cls-3, .cls-4 {
        stroke-width: 0px;
      }

      .cls-2 {
        fill: #316cb2;
      }

      .cls-3 {
        fill: #f1c101;
      }

      .cls-4 {
        fill: #dd0028;
      }
    </style>
  </defs>
  <sodipodi:namedview id="namedview969" bordercolor="#999999" borderopacity="1" inkscape:current-layer="layer1" inkscape:cx="396.55605" inkscape:cy="561.25984" inkscape:document-units="mm" inkscape:pagecheckerboard="0" inkscape:pageopacity="0" inkscape:pageshadow="0" inkscape:window-height="716" inkscape:window-maximized="1" inkscape:window-width="1366" inkscape:window-x="-8" inkscape:window-y="-8" inkscape:zoom="0.39464787" pagecolor="#ffffff" showgrid="false"/>
  <g id="layer1" inkscape:groupmode="layer" inkscape:label="Layer 1">
    <g id="g1099" inkscape:export-filename="C:\Etsy\WALLDECORBYGKOC\URUNLER\_PRODUCTS\DIGITAL\OTHER\DGBRAND_PLAYSTATION\DIGITAL FILES\playstation.png" inkscape:export-xdpi="300" inkscape:export-ydpi="300">
      <path id="path1107" class="cls-3" d="M305.7,429.2c-.1-.6-.2-12.5-.1-26.5v-25.4c.1,0,37.5,11.9,37.5,11.9,20.5,6.5,38.5,12.2,40,12.7,1.9.6,2.4.9,1.9,1.2-1.1.6-77.7,27.3-78.4,27.3s-.7-.5-.8-1.1h0ZM213.9,387.3v-13.5c-.1,0-7.4,2.4-7.4,2.4-12.2,3.9-25.4,6.7-41,8.6-9.9,1.2-37,1.2-47.8,0-9.6-1.1-41.7-6-56.1-8.7-28.7-5.2-44.2-10.3-53.7-17.8-3.2-2.5-6.5-7-7.3-9.9-.7-2.7-.6-9.9.3-13.9,1-4.5,4.3-11.4,7.4-15.5,6.8-8.9,19.3-17.6,33.1-22.9l3.9-1.5,38.9,12.3c21.4,6.8,38.9,12.4,38.9,12.6,0,.1-4.5,1.9-10.1,3.8-5.6,2-11.4,4.2-13.1,5-4.8,2.2-8.1,6.2-8,9.7,0,.4.5,1.8,1.2,3.2,3.2,7,15.1,11.4,26.7,10,3.7-.4,9-2,28.5-8.5l23.9-8,21,6.7,21,6.7v13.3c.2,7.3.2,19.2.1,26.3v13c-.1,0-.3-13.5-.3-13.5ZM214,303.9c0-9.3,0-13,.1-8.4,0,4.6,0,12.2,0,16.8,0,4.6-.1.8-.1-8.4ZM214,118.9c0-65.4,0-92.1.1-59.4,0,32.7,0,86.2,0,118.8,0,32.7-.1,5.9-.1-59.4ZM305.7,154.1c0-5.8,0-8.1.2-5.2,0,2.9,0,7.6,0,10.5s-.2.5-.2-5.2Z"/>
      <path id="path1105" class="cls-2" d="M480.5,344.1c-20.9-6.5-40.3-12.6-42.9-13.4l-4.9-1.5,16.7-5.8c25.7-8.8,33.3-13.1,34.1-19.1.2-1.7,0-2.1-1.5-3.6-3.6-3.4-11.8-4.9-24.9-4.5-15.8.5-18.5,1.1-46.5,10.5-13.5,4.5-24.6,8.1-24.6,7.9,0-.2-18.2-5.9-40.2-12.7-22.1-6.8-40-12.5-40-12.5.4-.4,20.3-6.9,29.3-9.7,36.8-11.1,67.3-16,98.8-16,41,0,86.2,8.3,108.3,20,14.2,7.5,21.8,16,24.3,27,3,13.4-7.5,26.9-29.1,37.7-5.2,2.6-15.4,6.8-17.8,7.4-.5.1-18.1-5.1-39-11.6h0ZM214,334.4c0-7.8,0-10.9.1-6.9,0,4,0,10.3,0,14.2,0,3.8-.1.6-.1-7.2h0ZM213.7,274.2v-13.1l-17.2-5.3c-9.5-2.9-17.5-5.4-17.8-5.6-.3-.2,7.5-3,17.4-6.4l18-6.1v24.8c0,13.6-.1,24.8-.2,24.8s-.2-5.9-.2-13.1h0Z"/>
      <path id="path1103" class="cls-1" d="M351.4,391.7c-18.4-5.9-36.2-11.6-39.7-12.7l-6.2-2v-2.2c.1,0,.3-2.2.3-2.2l63.4-21.7,63.4-21.7,42.8,13.3c23.7,7.4,42.6,13.4,42.2,13.6-1.7.9-131.1,46.3-131.9,46.3-.5,0-16-4.9-34.4-10.7h0ZM192.6,341.3c-10.9-3.5-19.7-6.5-19.5-6.7.3-.3,39.9-13.6,40.4-13.6s.2,6,.2,13.4c0,10.4-.1,13.4-.6,13.4-.3,0-9.6-2.9-20.5-6.4h0ZM305.5,316.1c0-14.5.2-26.4.4-26.4.7,0,80.2,24.7,80.2,24.9,0,.1-17.9,6.4-39.8,13.9-21.9,7.5-40,13.7-40.3,13.8-.2,0-.4-11.6-.4-26.2h0ZM84.8,307.2c-21.1-6.7-38.3-12.4-38.1-12.6.2-.2,13.2-4.6,28.9-9.9,15.7-5.3,45.2-15.2,65.5-22.1l37-12.5,17.8,5.5,17.8,5.5v26.1l-2.1.7c-1.1.4-21.5,7.7-45.1,16.2s-43.1,15.4-43.2,15.4c0,0-17.4-5.6-38.6-12.3h0Z"/>
      <path id="path1101" class="cls-4" d="M259.2,415.6c-24.5-8-44.7-14.6-44.8-14.8-.1-.1-.1-90.3,0-200.5V0c.1,0,60.4,15.9,60.4,15.9,62.4,16.5,70.6,18.8,81.9,23,56.1,20.9,86.4,53.5,92.6,100,2.2,16.3,1,40.7-3,58.5-6.7,30.1-22.9,49.3-46.6,55.2-15,3.8-31.7,3.1-52-2l-6.3-1.6-.2-80.3c-.2-65-.4-80.6-.9-81.7-1.7-3.8-5.3-6.9-10.2-8.6-3.7-1.3-11.5-1.4-15-.2-3.4,1.2-5.8,3-7.4,5.3l-1.4,2-.3,33.2c-.2,18.3-.3,95.9-.4,172.4,0,132.3-.1,139.2-.9,139.2-.5,0-20.9-6.6-45.5-14.6h0Z"/>
    </g>
  </g>
</svg>