<svg id="svg" version="1.1" xmlns="http://www.w3.org/2000/svg"
    xmlns:xlink="http://www.w3.org/1999/xlink" width="400" height="304" viewBox="0, 0, 400,304">
    <g id="svgg">
        <path id="path0"
            d="M148.745 83.165 C 148.745 162.215,148.772 166.325,149.278 166.208 C 149.668 166.117,149.985 166.468,150.469 167.529 C 152.201 171.321,151.744 204.715,149.961 204.715 C 149.775 204.715,149.694 204.832,149.782 204.974 C 149.870 205.117,149.731 205.493,149.473 205.811 C 149.215 206.128,149.104 206.196,149.226 205.961 C 149.372 205.680,149.327 205.608,149.096 205.750 C 148.408 206.176,148.618 225.071,149.309 224.891 C 149.742 224.777,150.063 225.106,150.687 226.300 L 151.501 227.856 151.343 236.438 C 150.860 262.720,150.680 265.804,149.615 266.083 C 149.304 266.164,149.049 266.360,149.049 266.517 C 149.049 266.675,148.947 266.740,148.821 266.662 C 148.696 266.585,148.662 270.238,148.745 274.781 C 148.909 283.655,149.108 284.679,150.674 284.705 C 150.981 284.711,151.469 285.006,151.758 285.362 C 152.133 285.826,152.743 286.054,153.902 286.166 C 154.910 286.262,155.737 286.535,156.088 286.887 C 156.489 287.287,157.098 287.452,158.175 287.452 C 159.315 287.452,159.696 287.565,159.696 287.903 C 159.696 288.151,160.072 288.429,160.532 288.522 C 160.992 288.615,161.814 288.831,162.359 289.004 C 162.903 289.177,163.631 289.228,163.977 289.118 C 164.452 288.967,164.646 289.074,164.772 289.554 C 164.918 290.115,165.166 290.190,166.880 290.190 C 168.619 290.190,168.821 290.254,168.821 290.798 C 168.821 291.344,169.024 291.407,170.798 291.407 C 172.536 291.407,172.776 291.477,172.776 291.983 C 172.776 292.705,173.347 292.928,175.199 292.928 C 176.403 292.928,176.687 293.034,176.818 293.536 C 176.955 294.059,177.233 294.144,178.795 294.144 C 180.358 294.144,180.636 294.230,180.773 294.753 C 180.909 295.274,181.187 295.361,182.713 295.361 C 184.269 295.361,184.533 295.448,184.795 296.046 C 185.049 296.625,185.368 296.744,186.877 296.822 C 188.343 296.898,188.686 297.019,188.813 297.507 C 188.946 298.015,189.242 298.099,190.910 298.099 C 192.604 298.099,192.852 298.172,192.852 298.667 C 192.852 299.231,194.029 299.608,195.817 299.616 C 196.194 299.618,196.776 299.894,197.110 300.228 C 197.555 300.673,198.124 300.837,199.229 300.837 C 200.428 300.837,200.806 300.962,201.065 301.445 C 201.334 301.949,201.702 302.053,203.205 302.053 C 204.628 302.053,205.019 302.153,205.019 302.517 C 205.019 303.107,206.237 303.574,207.776 303.574 C 208.435 303.574,208.973 303.711,208.973 303.878 C 208.973 304.063,210.299 304.183,212.341 304.183 L 215.709 304.183 215.647 283.726 C 215.580 261.562,215.597 261.316,217.231 260.889 C 218.135 260.652,218.103 243.346,217.199 243.346 C 216.817 243.346,216.322 242.866,215.819 242.007 L 215.034 240.667 215.121 222.919 L 215.209 205.171 215.970 203.755 C 216.388 202.976,216.970 202.270,217.262 202.186 C 217.765 202.043,217.795 200.175,217.795 168.470 C 217.795 108.525,218.146 60.532,218.585 60.532 C 218.797 60.532,219.053 60.273,219.153 59.957 C 219.254 59.640,219.605 59.311,219.934 59.225 C 220.263 59.139,220.532 58.850,220.532 58.584 C 220.532 58.312,220.784 58.099,221.106 58.099 C 221.421 58.099,221.903 57.757,222.177 57.338 C 222.924 56.198,232.593 56.129,232.755 57.262 C 232.835 57.831,233.070 57.963,234.144 58.040 C 235.190 58.116,235.437 58.247,235.437 58.725 C 235.437 59.113,235.646 59.316,236.046 59.316 C 236.451 59.316,236.654 59.518,236.654 59.924 C 236.654 60.323,236.857 60.532,237.244 60.532 C 237.709 60.532,237.877 60.820,238.039 61.901 C 238.198 62.966,238.371 63.270,238.817 63.270 C 239.376 63.270,239.392 64.677,239.467 120.532 L 239.544 177.795 241.476 178.008 C 242.807 178.155,243.534 178.392,243.809 178.768 C 244.135 179.214,244.746 179.335,247.095 179.420 C 249.630 179.512,250.000 179.595,250.134 180.104 C 250.273 180.637,250.606 180.684,254.233 180.684 C 257.861 180.684,258.192 180.731,258.332 181.265 C 258.670 182.560,276.372 182.656,277.414 181.369 C 277.909 180.758,278.241 180.684,280.508 180.684 C 282.718 180.684,283.097 180.605,283.428 180.076 C 283.731 179.590,284.137 179.468,285.441 179.468 C 286.762 179.468,287.155 179.346,287.498 178.830 C 287.796 178.381,288.358 178.143,289.400 178.025 C 290.499 177.901,290.916 177.714,291.026 177.294 C 291.127 176.909,291.452 176.730,292.051 176.730 C 292.533 176.730,293.189 176.469,293.508 176.149 C 293.828 175.830,294.341 175.521,294.649 175.462 C 294.957 175.403,295.253 175.048,295.306 174.674 C 295.386 174.115,295.597 173.992,296.475 173.992 C 297.292 173.992,297.585 173.847,297.707 173.384 C 297.798 173.034,298.121 172.776,298.467 172.776 C 298.809 172.776,299.136 172.518,299.225 172.177 C 299.311 171.848,299.640 171.497,299.957 171.396 C 300.273 171.296,300.532 170.949,300.532 170.626 C 300.532 170.202,300.744 170.038,301.293 170.038 C 301.835 170.038,302.053 169.873,302.053 169.465 C 302.053 169.148,302.325 168.821,302.662 168.733 C 303.026 168.638,303.270 168.318,303.270 167.937 C 303.270 167.503,303.464 167.300,303.878 167.300 C 304.277 167.300,304.487 167.098,304.487 166.713 C 304.487 166.337,304.731 166.091,305.168 166.029 C 305.543 165.975,305.897 165.680,305.956 165.372 C 306.015 165.064,306.324 164.550,306.644 164.231 C 306.963 163.912,307.224 163.308,307.224 162.890 C 307.224 162.335,307.387 162.129,307.827 162.129 C 308.225 162.129,308.498 161.856,308.631 161.325 C 308.742 160.882,309.087 160.266,309.398 159.956 C 309.708 159.646,309.962 159.082,309.962 158.704 C 309.962 158.326,310.236 157.846,310.570 157.637 C 310.990 157.375,311.179 156.928,311.179 156.195 C 311.179 155.446,311.315 155.133,311.643 155.133 C 312.208 155.133,312.700 153.931,312.700 152.548 C 312.700 151.791,312.858 151.474,313.308 151.331 C 313.801 151.174,313.916 150.871,313.916 149.733 C 313.916 148.711,314.096 148.137,314.576 147.627 C 315.041 147.131,315.277 146.410,315.379 145.173 C 315.482 143.927,315.687 143.307,316.089 143.025 C 316.566 142.689,316.654 142.214,316.654 139.980 C 316.654 137.662,316.730 137.285,317.262 136.953 C 317.820 136.605,317.871 136.243,317.871 132.658 C 317.871 128.936,317.904 128.721,318.555 128.289 L 319.240 127.835 319.336 113.727 C 319.440 98.401,319.376 97.167,318.463 96.877 C 317.924 96.706,317.871 96.391,317.871 93.364 C 317.871 90.444,317.797 89.964,317.262 89.430 C 316.784 88.951,316.654 88.416,316.654 86.917 C 316.654 85.388,316.542 84.943,316.087 84.659 C 315.694 84.414,315.473 83.824,315.370 82.751 C 315.272 81.735,314.995 80.956,314.568 80.503 C 314.098 80.002,313.916 79.421,313.916 78.419 C 313.916 77.301,313.801 76.999,313.328 76.875 C 312.900 76.763,312.714 76.404,312.644 75.547 C 312.566 74.596,312.417 74.354,311.863 74.275 C 311.271 74.191,311.179 73.997,311.179 72.831 C 311.179 71.686,311.087 71.483,310.570 71.483 C 310.061 71.483,309.962 71.280,309.962 70.238 C 309.962 69.269,309.833 68.959,309.382 68.841 C 309.008 68.743,308.731 68.309,308.602 67.619 C 308.471 66.922,308.196 66.495,307.813 66.395 C 307.439 66.297,307.224 65.977,307.224 65.516 C 307.224 64.994,307.054 64.791,306.616 64.791 C 306.146 64.791,306.008 64.588,306.008 63.900 C 306.008 63.038,305.347 62.053,304.769 62.053 C 304.614 62.053,304.487 61.779,304.487 61.445 C 304.487 61.039,304.284 60.837,303.878 60.837 C 303.432 60.837,303.270 60.634,303.270 60.076 C 303.270 59.518,303.108 59.316,302.662 59.316 C 302.252 59.316,302.053 59.113,302.053 58.693 C 302.053 58.351,301.711 57.729,301.293 57.311 C 300.875 56.892,300.532 56.415,300.532 56.250 C 300.532 56.085,300.317 55.868,300.053 55.766 C 299.789 55.665,299.450 55.259,299.300 54.863 C 299.137 54.434,298.778 54.144,298.411 54.144 C 298.005 54.144,297.795 53.944,297.795 53.557 C 297.795 53.233,297.536 52.887,297.219 52.786 C 296.903 52.686,296.573 52.334,296.487 52.005 C 296.401 51.676,296.122 51.407,295.866 51.407 C 295.611 51.407,295.315 51.133,295.209 50.798 C 295.103 50.464,294.751 50.190,294.428 50.190 C 294.105 50.190,293.840 49.990,293.840 49.745 C 293.840 49.499,293.556 49.147,293.209 48.961 C 292.862 48.775,292.314 48.360,291.992 48.038 C 291.670 47.716,291.065 47.452,290.646 47.452 C 290.077 47.452,289.886 47.292,289.886 46.816 C 289.886 46.445,289.643 46.115,289.306 46.027 C 288.987 45.944,288.657 45.614,288.574 45.295 C 288.485 44.957,288.156 44.715,287.785 44.715 C 287.351 44.715,287.148 44.521,287.148 44.106 C 287.148 43.601,286.946 43.498,285.953 43.498 C 284.944 43.498,284.742 43.391,284.660 42.814 C 284.597 42.374,284.318 42.095,283.878 42.032 C 283.438 41.970,283.194 41.725,283.194 41.348 C 283.194 40.968,282.984 40.760,282.601 40.760 C 282.275 40.760,281.639 40.418,281.188 40.000 C 280.737 39.582,280.130 39.240,279.839 39.240 C 279.548 39.240,279.239 38.966,279.151 38.631 C 279.025 38.148,278.736 38.023,277.747 38.023 C 276.705 38.023,276.502 37.924,276.502 37.414 C 276.502 36.976,276.299 36.806,275.777 36.806 C 275.316 36.806,274.996 36.592,274.898 36.218 C 274.798 35.835,274.371 35.560,273.674 35.429 C 272.983 35.299,272.550 35.022,272.452 34.648 C 272.335 34.201,272.025 34.068,271.091 34.068 C 270.137 34.068,269.847 33.940,269.722 33.460 C 269.615 33.053,269.307 32.852,268.789 32.852 C 268.364 32.852,267.647 32.510,267.196 32.091 C 266.659 31.594,266.021 31.331,265.355 31.331 C 264.686 31.331,264.335 31.185,264.335 30.907 C 264.335 30.346,263.661 30.114,262.028 30.114 C 260.913 30.114,260.684 30.016,260.684 29.538 C 260.684 28.888,260.118 28.593,258.870 28.593 C 258.274 28.593,257.970 28.411,257.859 27.985 C 257.726 27.477,257.444 27.376,256.153 27.376 C 254.935 27.376,254.525 27.247,254.226 26.768 C 253.957 26.337,253.517 26.160,252.716 26.160 C 251.917 26.160,251.364 25.937,250.826 25.399 C 250.241 24.815,249.751 24.639,248.704 24.639 C 247.609 24.639,247.304 24.519,247.148 24.030 C 246.982 23.507,246.688 23.422,245.034 23.422 C 243.421 23.422,243.089 23.332,242.966 22.860 C 242.806 22.250,241.604 21.901,239.660 21.901 C 238.814 21.901,238.378 21.731,238.104 21.293 C 237.790 20.790,237.395 20.684,235.831 20.684 C 234.249 20.684,233.884 20.584,233.612 20.076 C 233.328 19.546,232.975 19.468,230.864 19.468 C 228.694 19.468,228.441 19.408,228.441 18.895 C 228.441 18.186,227.653 17.956,225.207 17.951 C 223.599 17.947,223.319 17.863,223.182 17.338 C 223.042 16.804,222.767 16.730,220.912 16.730 C 219.221 16.730,218.697 16.615,218.276 16.149 C 217.924 15.760,217.127 15.496,215.871 15.350 C 214.781 15.224,213.688 14.893,213.267 14.562 C 212.731 14.142,212.038 13.992,210.616 13.992 C 209.002 13.992,208.638 13.894,208.365 13.384 C 208.081 12.854,207.728 12.776,205.617 12.776 C 203.447 12.776,203.194 12.716,203.194 12.203 C 203.194 11.494,202.405 11.264,199.959 11.259 C 198.351 11.255,198.072 11.171,197.935 10.646 C 197.797 10.121,197.520 10.038,195.894 10.038 C 194.473 10.038,193.823 9.889,193.239 9.430 C 192.667 8.980,192.005 8.821,190.695 8.821 C 189.213 8.821,188.801 8.698,188.165 8.061 C 187.500 7.396,187.139 7.300,185.296 7.300 C 183.445 7.300,183.170 7.227,183.030 6.692 C 182.887 6.147,182.615 6.084,180.409 6.084 C 178.204 6.084,177.947 6.024,177.947 5.513 C 177.947 4.835,176.892 4.563,174.259 4.563 C 172.674 4.563,172.471 4.494,172.471 3.954 C 172.471 3.411,172.269 3.346,170.562 3.346 C 169.029 3.346,168.550 3.226,168.131 2.738 C 167.701 2.235,167.234 2.129,165.450 2.129 C 163.586 2.129,163.268 2.050,163.138 1.554 C 162.965 0.889,161.886 0.608,159.506 0.608 C 158.606 0.608,157.871 0.471,157.871 0.304 C 157.871 0.115,156.147 0.000,153.308 0.000 L 148.745 0.000 148.745 83.165 M10.646 217.643 C 10.338 218.014,10.353 218.099,10.729 218.099 C 10.982 218.099,11.268 217.894,11.365 217.643 C 11.461 217.392,11.424 217.186,11.282 217.186 C 11.141 217.186,10.855 217.392,10.646 217.643 M266.768 226.312 C 266.768 226.479,266.965 226.616,267.206 226.616 C 267.447 226.616,267.729 226.479,267.833 226.312 C 267.936 226.144,267.739 226.008,267.394 226.008 C 267.050 226.008,266.768 226.144,266.768 226.312 M86.935 227.894 C 87.219 228.177,87.381 228.177,87.665 227.894 C 87.949 227.610,87.868 227.529,87.300 227.529 C 86.733 227.529,86.651 227.610,86.935 227.894 M26.534 263.783 C 26.722 264.347,27.376 264.441,27.376 263.904 C 27.376 263.639,27.160 263.422,26.895 263.422 C 26.630 263.422,26.467 263.585,26.534 263.783 M53.840 269.354 C 54.049 269.605,54.335 269.810,54.476 269.810 C 54.618 269.810,54.655 269.605,54.559 269.354 C 54.462 269.103,54.176 268.897,53.923 268.897 C 53.547 268.897,53.532 268.982,53.840 269.354 M236.654 298.580 C 236.654 298.845,236.817 299.008,237.015 298.942 C 237.579 298.754,237.673 298.099,237.136 298.099 C 236.871 298.099,236.654 298.316,236.654 298.580 "
            stroke="none" fill="#e41c2c" fill-rule="evenodd"></path>
        <path id="path1"
            d="M148.745 166.961 C 148.745 167.109,147.856 167.325,146.768 167.441 C 145.094 167.620,144.791 167.743,144.791 168.237 C 144.791 168.734,144.567 168.821,143.295 168.821 C 141.515 168.821,140.837 169.040,140.837 169.614 C 140.837 169.905,140.460 170.038,139.640 170.038 C 138.100 170.038,136.882 170.505,136.882 171.095 C 136.882 171.460,136.487 171.559,135.029 171.559 C 133.431 171.559,133.153 171.643,133.016 172.167 C 132.882 172.681,132.601 172.776,131.216 172.776 C 129.952 172.776,129.456 172.915,129.055 173.384 C 128.762 173.726,128.158 173.992,127.674 173.992 C 126.701 173.992,125.019 174.768,125.019 175.217 C 125.019 175.380,124.335 175.513,123.498 175.513 C 122.383 175.513,121.815 175.676,121.369 176.122 C 120.961 176.530,120.355 176.730,119.530 176.730 C 118.623 176.730,118.099 176.930,117.539 177.490 C 116.955 178.074,116.463 178.251,115.423 178.251 C 114.678 178.251,114.085 178.354,114.104 178.479 C 114.240 179.339,113.977 179.468,112.091 179.468 C 110.333 179.468,110.114 179.533,110.114 180.062 C 110.114 180.578,109.865 180.667,108.213 180.746 C 106.505 180.827,106.302 180.906,106.215 181.521 C 106.125 182.149,105.957 182.205,104.182 182.205 C 102.513 182.205,102.220 182.289,102.053 182.814 C 101.888 183.333,101.593 183.422,100.027 183.422 C 98.484 183.422,98.170 183.513,98.043 183.998 C 97.923 184.457,97.497 184.616,95.943 184.783 C 94.295 184.959,93.992 185.082,93.992 185.576 C 93.992 186.088,93.764 186.160,92.139 186.160 C 90.555 186.160,90.263 186.246,90.130 186.754 C 90.000 187.250,89.662 187.364,88.105 187.439 C 86.430 187.519,86.226 187.600,86.139 188.213 C 86.049 188.842,85.882 188.897,84.085 188.897 C 82.332 188.897,82.129 188.960,82.129 189.506 C 82.129 190.048,81.926 190.114,80.276 190.114 C 78.678 190.114,78.400 190.198,78.263 190.722 C 78.145 191.174,77.848 191.331,77.113 191.331 C 75.379 191.331,74.246 191.683,74.057 192.280 C 73.906 192.754,73.571 192.852,72.091 192.852 C 70.574 192.852,70.278 192.943,70.114 193.460 C 69.959 193.950,69.654 194.068,68.553 194.068 C 67.001 194.068,66.008 194.488,66.008 195.144 C 66.008 195.486,65.579 195.589,64.154 195.589 C 62.556 195.589,62.279 195.673,62.141 196.198 C 62.005 196.720,61.726 196.806,60.164 196.806 C 58.602 196.806,58.324 196.892,58.187 197.414 C 58.069 197.866,57.772 198.023,57.037 198.023 C 55.183 198.023,54.144 198.364,54.144 198.973 C 54.144 199.469,53.901 199.544,52.291 199.544 C 50.693 199.544,50.415 199.628,50.278 200.152 C 50.152 200.636,49.861 200.761,48.862 200.765 C 47.132 200.770,46.316 201.030,46.160 201.625 C 46.061 202.001,45.610 202.151,44.383 202.216 C 43.157 202.280,42.631 202.455,42.320 202.900 C 41.994 203.368,41.549 203.498,40.278 203.498 C 38.964 203.498,38.590 203.615,38.327 204.106 C 38.119 204.496,37.690 204.715,37.138 204.715 C 35.494 204.715,34.295 205.099,34.145 205.674 C 34.038 206.081,33.714 206.236,32.968 206.236 C 31.360 206.236,31.720 207.235,33.460 207.599 C 34.046 207.722,34.798 208.067,35.133 208.366 C 35.468 208.665,36.342 209.007,37.077 209.127 C 37.811 209.247,38.975 209.601,39.662 209.913 C 40.350 210.225,41.186 210.485,41.521 210.489 C 41.856 210.494,42.524 210.704,43.007 210.956 C 43.490 211.208,44.654 211.608,45.593 211.845 C 47.232 212.259,49.319 212.897,51.255 213.577 C 51.757 213.753,52.510 214.007,52.928 214.141 C 53.346 214.275,54.373 214.613,55.209 214.891 C 56.046 215.170,57.483 215.585,58.404 215.814 C 59.324 216.044,60.487 216.445,60.989 216.707 C 61.491 216.969,62.172 217.183,62.504 217.184 C 62.835 217.185,63.793 217.442,64.633 217.755 C 67.381 218.779,69.172 219.359,71.000 219.815 C 71.990 220.061,73.081 220.461,73.425 220.702 C 73.770 220.943,74.398 221.144,74.821 221.147 C 75.243 221.151,76.138 221.403,76.809 221.708 C 77.480 222.013,78.575 222.362,79.243 222.484 C 79.910 222.607,80.741 222.890,81.090 223.114 C 81.438 223.338,82.368 223.618,83.156 223.736 C 84.821 223.986,87.909 225.878,87.909 226.648 C 87.909 226.929,88.101 227.233,88.336 227.323 C 89.072 227.605,90.038 227.184,90.038 226.580 C 90.038 226.082,90.279 226.008,91.892 226.008 C 93.489 226.008,93.767 225.924,93.904 225.399 C 94.036 224.896,94.319 224.791,95.549 224.791 C 96.629 224.791,97.200 224.625,97.643 224.183 C 97.977 223.848,98.600 223.574,99.027 223.574 C 99.931 223.574,101.597 222.780,101.597 222.350 C 101.597 222.187,102.281 222.053,103.118 222.053 C 104.424 222.053,104.639 221.969,104.639 221.459 C 104.639 220.943,104.888 220.854,106.540 220.775 C 108.247 220.694,108.451 220.615,108.538 220.000 C 108.628 219.371,108.795 219.316,110.591 219.316 C 112.345 219.316,112.548 219.253,112.548 218.707 C 112.548 218.181,112.750 218.099,114.044 218.099 C 115.824 218.099,116.502 217.880,116.502 217.306 C 116.502 217.043,116.831 216.882,117.369 216.882 C 118.566 216.882,120.069 216.320,120.270 215.796 C 120.381 215.508,120.901 215.361,121.816 215.361 C 122.991 215.361,123.194 215.272,123.194 214.753 C 123.194 214.211,123.397 214.144,125.047 214.144 C 126.610 214.144,126.925 214.054,127.052 213.569 C 127.171 213.111,127.596 212.951,129.122 212.787 C 130.664 212.622,131.073 212.466,131.196 211.994 C 131.319 211.523,131.622 211.407,132.722 211.407 C 134.383 211.407,135.057 211.178,135.057 210.614 C 135.057 210.317,135.452 210.190,136.381 210.190 C 137.373 210.190,137.912 209.999,138.526 209.430 C 139.109 208.890,139.690 208.669,140.527 208.669 C 141.441 208.669,141.752 208.532,141.901 208.061 C 142.066 207.541,142.361 207.452,143.927 207.452 C 145.505 207.452,145.783 207.368,145.919 206.844 C 146.043 206.372,146.334 206.236,147.221 206.236 C 148.823 206.236,150.153 204.675,150.420 202.482 C 150.692 200.247,150.433 168.200,150.137 167.376 C 149.904 166.729,148.745 166.383,148.745 166.961 M289.626 184.846 C 286.806 184.953,286.461 185.027,286.321 185.562 C 286.174 186.124,285.879 186.160,281.358 186.160 C 276.317 186.160,275.589 186.260,275.589 186.953 C 275.589 187.290,274.876 187.376,272.071 187.376 C 268.518 187.376,267.376 187.638,267.376 188.452 C 267.376 188.815,266.781 188.897,264.154 188.897 C 261.187 188.897,260.919 188.946,260.773 189.506 C 260.630 190.052,260.358 190.114,258.104 190.114 C 256.056 190.114,255.453 190.226,254.822 190.722 C 254.321 191.117,253.584 191.332,252.728 191.334 C 250.418 191.340,249.057 191.680,248.897 192.290 C 248.774 192.761,248.442 192.852,246.850 192.852 C 245.410 192.852,244.762 192.999,244.176 193.460 C 243.636 193.885,242.942 194.068,241.878 194.068 C 239.963 194.068,239.392 194.285,239.392 195.014 C 239.392 195.518,239.152 195.589,237.455 195.589 C 235.980 195.589,235.335 195.734,234.746 196.198 C 234.232 196.602,233.512 196.806,232.600 196.806 C 230.940 196.806,230.266 197.035,230.266 197.599 C 230.266 197.898,229.867 198.023,228.917 198.023 C 227.239 198.023,226.008 198.470,226.008 199.080 C 226.008 199.445,225.612 199.544,224.154 199.544 C 222.595 199.544,222.277 199.635,222.151 200.117 C 222.033 200.567,221.641 200.719,220.315 200.829 C 219.109 200.929,218.490 201.143,218.136 201.581 C 217.865 201.918,217.423 202.270,217.154 202.363 C 216.344 202.645,216.280 204.138,216.280 222.966 C 216.280 244.123,216.220 243.346,217.863 243.346 C 218.813 243.346,219.102 243.217,219.227 242.738 C 219.364 242.215,219.642 242.129,221.205 242.129 C 222.767 242.129,223.045 242.044,223.182 241.521 C 223.370 240.801,223.743 240.730,223.988 241.369 C 224.217 241.966,224.916 241.951,225.426 241.337 C 225.648 241.069,226.144 240.730,226.527 240.584 C 226.911 240.438,227.224 240.111,227.224 239.855 C 227.224 239.503,227.583 239.392,228.720 239.392 C 230.500 239.392,231.179 239.173,231.179 238.599 C 231.179 238.304,231.571 238.174,232.471 238.171 C 234.290 238.165,235.053 237.906,235.229 237.234 C 235.346 236.787,235.656 236.654,236.584 236.654 C 237.328 236.654,238.085 236.421,238.562 236.046 C 239.040 235.670,239.796 235.437,240.539 235.437 C 241.268 235.437,242.038 235.206,242.489 234.851 C 242.899 234.528,243.773 234.220,244.431 234.166 C 245.326 234.093,245.703 233.896,245.928 233.384 C 246.190 232.786,246.454 232.700,248.009 232.700 C 249.535 232.700,249.814 232.612,249.950 232.091 C 250.081 231.589,250.365 231.483,251.570 231.483 C 253.315 231.483,253.992 231.261,253.992 230.690 C 253.992 230.426,254.322 230.266,254.867 230.266 C 256.521 230.266,257.720 229.883,257.871 229.307 C 257.993 228.840,258.323 228.745,259.836 228.745 C 261.398 228.745,261.676 228.660,261.813 228.137 C 261.944 227.635,262.228 227.529,263.433 227.529 C 265.285 227.529,265.856 227.306,265.856 226.583 C 265.856 226.078,266.096 226.008,267.833 226.008 C 269.607 226.008,269.810 225.945,269.810 225.399 C 269.810 224.859,270.013 224.791,271.624 224.791 C 273.127 224.791,273.495 224.686,273.764 224.183 C 273.973 223.793,274.401 223.574,274.954 223.574 C 276.580 223.574,277.662 223.217,277.815 222.629 C 277.940 222.151,278.254 222.053,279.657 222.053 C 281.036 222.053,281.407 221.941,281.673 221.445 C 281.913 220.996,282.310 220.837,283.185 220.837 C 284.714 220.837,285.932 220.368,285.932 219.779 C 285.932 219.415,286.327 219.316,287.785 219.316 C 289.383 219.316,289.661 219.232,289.798 218.707 C 289.929 218.205,290.213 218.099,291.417 218.099 C 293.163 218.099,293.840 217.877,293.840 217.306 C 293.840 217.015,294.217 216.882,295.037 216.882 C 296.577 216.882,297.795 216.415,297.795 215.825 C 297.795 215.460,298.190 215.361,299.648 215.361 C 301.246 215.361,301.524 215.277,301.661 214.753 C 301.789 214.265,302.076 214.144,303.112 214.144 C 303.915 214.144,304.679 213.928,305.130 213.574 C 305.633 213.179,306.637 212.935,308.403 212.779 C 310.533 212.590,310.974 212.460,311.100 211.980 C 311.263 211.356,310.452 211.391,324.715 211.391 C 336.283 211.391,335.513 211.349,335.513 211.976 C 335.513 212.404,335.811 212.593,336.710 212.737 C 337.536 212.869,337.966 213.117,338.099 213.536 C 338.205 213.871,338.556 214.144,338.880 214.144 C 339.875 214.144,339.566 215.316,338.191 216.759 C 337.488 217.496,336.663 218.099,336.358 218.099 C 336.045 218.099,335.676 218.431,335.513 218.859 C 335.336 219.325,334.985 219.620,334.608 219.620 C 334.270 219.620,333.719 219.894,333.384 220.228 C 333.049 220.563,332.455 220.837,332.062 220.837 C 331.670 220.837,331.101 221.110,330.798 221.445 C 330.496 221.779,329.936 222.053,329.554 222.053 C 328.468 222.053,327.300 222.601,327.300 223.110 C 327.300 223.469,326.925 223.574,325.638 223.574 C 324.287 223.574,323.915 223.688,323.650 224.183 C 323.412 224.628,323.013 224.791,322.160 224.791 C 321.487 224.791,320.688 225.030,320.269 225.356 C 319.870 225.668,318.884 226.020,318.077 226.139 C 317.270 226.258,316.346 226.620,316.024 226.942 C 315.618 227.347,315.015 227.529,314.068 227.529 C 313.316 227.529,312.716 227.631,312.736 227.757 C 312.863 228.564,312.570 228.722,310.798 228.807 C 309.091 228.888,308.887 228.967,308.800 229.582 C 308.711 230.210,308.544 230.266,306.747 230.266 C 304.994 230.266,304.791 230.329,304.791 230.875 C 304.791 231.420,304.588 231.483,302.814 231.483 C 301.039 231.483,300.837 231.545,300.837 232.091 C 300.837 232.604,300.632 232.700,299.544 232.704 C 297.733 232.710,296.932 232.977,296.720 233.645 C 296.567 234.126,296.235 234.221,294.704 234.221 C 293.141 234.221,292.848 234.308,292.715 234.815 C 292.588 235.301,292.248 235.425,290.843 235.499 C 289.400 235.575,289.077 235.699,288.825 236.274 C 288.563 236.871,288.299 236.958,286.743 236.958 C 285.218 236.958,284.939 237.046,284.803 237.567 C 284.669 238.080,284.388 238.175,283.009 238.175 C 281.703 238.175,281.297 238.297,280.994 238.783 C 280.725 239.213,280.285 239.392,279.490 239.392 C 278.017 239.392,276.806 239.869,276.806 240.449 C 276.806 240.814,276.411 240.913,274.953 240.913 C 273.355 240.913,273.077 240.997,272.940 241.521 C 272.813 242.007,272.525 242.129,271.505 242.129 C 270.676 242.129,270.013 242.330,269.614 242.702 C 269.276 243.017,268.292 243.372,267.427 243.491 C 266.438 243.627,265.929 243.827,266.054 244.030 C 266.175 244.226,266.108 244.262,265.882 244.123 C 265.671 243.993,265.355 244.098,265.151 244.366 C 264.943 244.638,264.211 244.877,263.422 244.929 C 262.314 245.002,262.070 245.120,262.143 245.551 C 262.219 246.004,261.984 246.084,260.571 246.084 C 258.518 246.084,257.947 246.289,257.947 247.029 C 257.947 247.531,257.709 247.605,256.093 247.605 C 254.495 247.605,254.218 247.689,254.081 248.213 C 253.944 248.736,253.666 248.821,252.103 248.821 C 250.541 248.821,250.263 248.907,250.126 249.430 C 250.008 249.881,249.711 250.038,248.976 250.038 C 247.122 250.038,246.084 250.379,246.084 250.989 C 246.084 251.488,245.837 251.559,244.106 251.559 C 242.332 251.559,242.129 251.621,242.129 252.167 C 242.129 252.693,241.926 252.776,240.633 252.776 C 238.746 252.776,238.175 252.995,238.175 253.721 C 238.175 254.226,237.936 254.297,236.233 254.297 C 234.547 254.297,234.271 254.377,234.132 254.905 C 234.003 255.400,233.717 255.513,232.601 255.513 C 230.940 255.513,230.266 255.742,230.266 256.306 C 230.266 256.585,229.914 256.730,229.240 256.730 C 227.472 256.730,226.339 257.078,226.148 257.679 C 226.000 258.146,225.665 258.251,224.317 258.251 C 222.996 258.251,222.591 258.372,222.287 258.859 C 222.013 259.297,221.577 259.468,220.731 259.468 C 219.921 259.468,219.275 259.704,218.652 260.228 C 218.155 260.646,217.503 260.989,217.204 260.989 C 216.788 260.989,216.615 261.320,216.467 262.400 C 216.031 265.584,216.312 266.458,217.779 266.471 C 218.206 266.474,219.104 266.727,219.775 267.031 C 220.446 267.336,221.541 267.687,222.208 267.810 C 222.876 267.934,223.833 268.228,224.335 268.464 C 224.837 268.700,225.932 269.084,226.768 269.317 C 227.605 269.550,228.700 269.879,229.202 270.048 C 229.703 270.216,230.798 270.585,231.635 270.867 C 232.471 271.150,233.840 271.559,234.677 271.778 C 235.513 271.996,236.608 272.395,237.110 272.663 C 237.612 272.932,238.340 273.153,238.727 273.154 C 239.114 273.155,240.072 273.418,240.856 273.739 C 241.640 274.060,242.692 274.408,243.194 274.514 C 243.696 274.619,244.791 274.957,245.627 275.265 C 246.464 275.572,248.175 276.129,249.430 276.502 C 250.684 276.875,252.395 277.433,253.232 277.742 C 254.068 278.052,255.300 278.438,255.970 278.600 C 257.213 278.901,259.043 279.496,261.749 280.480 C 262.586 280.784,263.817 281.124,264.487 281.235 C 265.156 281.346,265.991 281.617,266.343 281.837 C 266.695 282.057,267.517 282.334,268.168 282.453 C 269.190 282.639,271.082 283.496,272.825 284.563 C 273.098 284.730,273.277 285.094,273.222 285.371 C 273.090 286.038,273.626 286.337,274.542 286.106 C 275.017 285.987,275.285 285.703,275.285 285.317 C 275.285 284.783,275.494 284.715,277.139 284.715 C 278.736 284.715,279.014 284.631,279.151 284.106 C 279.283 283.603,279.566 283.498,280.796 283.498 C 281.876 283.498,282.447 283.332,282.890 282.890 C 283.224 282.555,283.823 282.281,284.221 282.281 C 285.729 282.281,286.927 281.879,287.072 281.323 C 287.187 280.884,287.512 280.760,288.553 280.760 C 289.467 280.760,290.072 280.575,290.476 280.170 C 290.832 279.815,291.587 279.543,292.377 279.486 C 293.471 279.407,293.704 279.278,293.785 278.707 C 293.875 278.079,294.043 278.023,295.818 278.023 C 297.487 278.023,297.780 277.939,297.947 277.414 C 298.108 276.905,298.407 276.806,299.782 276.806 C 301.112 276.806,301.485 276.691,301.749 276.198 C 301.957 275.809,302.386 275.589,302.938 275.589 C 304.565 275.589,305.646 275.232,305.800 274.644 C 305.925 274.166,306.239 274.068,307.650 274.068 C 309.019 274.068,309.422 273.950,309.728 273.460 C 309.995 273.033,310.438 272.852,311.211 272.852 C 311.869 272.852,312.639 272.595,313.122 272.215 C 313.975 271.545,314.453 271.392,315.817 271.354 C 316.443 271.337,316.654 271.178,316.654 270.722 C 316.654 270.181,316.857 270.114,318.508 270.114 C 320.105 270.114,320.383 270.030,320.520 269.506 C 320.647 269.022,320.937 268.896,321.937 268.893 C 323.780 268.887,324.563 268.606,324.563 267.949 C 324.563 267.451,324.804 267.376,326.416 267.376 C 328.014 267.376,328.292 267.292,328.429 266.768 C 328.555 266.284,328.846 266.159,329.845 266.156 C 331.544 266.150,332.471 265.870,332.471 265.364 C 332.471 265.132,332.779 264.932,333.156 264.920 C 334.399 264.877,334.997 264.685,335.856 264.050 C 336.385 263.659,337.170 263.422,337.934 263.422 C 338.961 263.422,339.163 263.322,339.163 262.814 C 339.163 262.273,339.366 262.205,340.995 262.205 C 342.654 262.205,342.859 262.133,343.173 261.445 C 343.485 260.762,343.698 260.684,345.275 260.684 C 346.764 260.684,347.061 260.592,347.224 260.076 C 347.383 259.576,347.685 259.468,348.921 259.468 C 350.048 259.468,350.555 259.315,350.945 258.859 C 351.232 258.525,351.829 258.251,352.273 258.251 C 353.829 258.251,354.962 257.876,355.145 257.302 C 355.286 256.855,355.622 256.730,356.674 256.730 C 357.617 256.730,358.206 256.547,358.631 256.122 C 359.041 255.711,359.645 255.513,360.485 255.513 C 361.466 255.513,361.763 255.387,361.886 254.916 C 362.011 254.439,362.409 254.278,363.875 254.112 C 365.299 253.951,365.740 253.779,365.855 253.340 C 365.979 252.865,366.309 252.776,367.944 252.776 C 369.683 252.776,369.886 252.712,369.886 252.167 C 369.886 251.662,370.089 251.559,371.083 251.559 C 372.622 251.559,373.840 251.092,373.840 250.502 C 373.840 250.155,374.185 250.038,375.209 250.038 C 376.375 250.038,376.578 249.948,376.578 249.430 C 376.578 248.920,376.781 248.821,377.823 248.821 C 378.813 248.821,379.101 248.696,379.227 248.213 C 379.323 247.846,379.645 247.603,380.035 247.600 C 381.288 247.592,382.053 247.235,382.053 246.657 C 382.053 246.191,382.281 246.084,383.270 246.084 C 384.256 246.084,384.487 245.976,384.487 245.514 C 384.487 245.083,384.789 244.896,385.734 244.745 C 386.620 244.604,387.027 244.372,387.138 243.946 C 387.228 243.604,387.554 243.346,387.897 243.346 C 388.242 243.346,388.566 243.087,388.657 242.738 C 388.745 242.403,389.060 242.129,389.357 242.129 C 389.655 242.129,390.220 241.789,390.614 241.374 C 391.008 240.959,391.561 240.617,391.843 240.614 C 392.124 240.611,392.441 240.335,392.548 240.000 C 392.654 239.665,393.005 239.392,393.328 239.392 C 393.714 239.392,393.916 239.182,393.916 238.783 C 393.916 238.389,394.119 238.175,394.492 238.175 C 394.852 238.175,395.139 237.890,395.258 237.414 C 395.381 236.923,395.662 236.654,396.051 236.654 C 396.424 236.654,396.654 236.449,396.654 236.119 C 396.654 235.824,396.928 235.413,397.262 235.204 C 397.682 234.942,397.871 234.494,397.871 233.762 C 397.871 232.832,397.965 232.700,398.631 232.700 C 399.240 232.700,399.392 232.548,399.392 231.939 C 399.392 231.521,399.529 231.179,399.696 231.179 C 399.891 231.179,400.000 228.137,400.000 222.662 C 400.000 217.551,399.886 214.144,399.714 214.144 C 399.557 214.144,399.386 213.631,399.334 213.004 C 399.265 212.165,399.058 211.784,398.555 211.563 C 398.179 211.398,397.871 211.077,397.871 210.850 C 397.871 210.623,397.597 210.366,397.262 210.278 C 396.836 210.167,396.654 209.863,396.654 209.264 C 396.654 208.431,395.985 207.452,395.416 207.452 C 395.260 207.452,395.133 207.179,395.133 206.844 C 395.133 206.439,394.930 206.236,394.525 206.236 C 394.181 206.236,393.916 206.033,393.916 205.770 C 393.916 205.514,393.677 205.217,393.384 205.110 C 393.091 205.003,392.465 204.597,391.992 204.207 C 391.519 203.817,390.869 203.498,390.547 203.498 C 390.165 203.498,389.962 203.287,389.962 202.890 C 389.962 202.482,389.759 202.281,389.346 202.281 C 388.969 202.281,388.618 201.986,388.441 201.521 C 388.211 200.915,387.941 200.760,387.115 200.760 C 386.334 200.760,386.039 200.610,385.919 200.152 C 385.794 199.671,385.505 199.544,384.536 199.544 C 383.499 199.544,383.297 199.440,383.215 198.859 C 383.134 198.290,382.900 198.159,381.825 198.081 C 380.780 198.006,380.532 197.875,380.532 197.397 C 380.532 196.899,380.316 196.806,379.163 196.806 C 377.997 196.806,377.795 196.716,377.795 196.198 C 377.795 195.652,377.592 195.589,375.839 195.589 C 374.042 195.589,373.875 195.534,373.785 194.905 C 373.698 194.293,373.476 194.204,371.680 194.068 C 369.988 193.940,369.685 193.833,369.752 193.384 C 369.821 192.925,369.568 192.852,367.917 192.852 C 366.219 192.852,365.983 192.778,365.833 192.203 C 365.708 191.727,365.497 191.598,365.037 191.718 C 364.692 191.809,364.411 191.758,364.411 191.607 C 364.411 191.455,363.537 191.331,362.469 191.331 C 360.783 191.331,360.506 191.251,360.368 190.722 C 360.225 190.175,359.953 190.114,357.663 190.114 C 355.493 190.114,355.039 190.024,354.595 189.506 C 354.133 188.966,353.698 188.897,350.725 188.897 C 348.867 188.897,347.376 188.772,347.376 188.615 C 347.376 187.597,346.423 187.376,342.018 187.376 C 337.994 187.376,337.624 187.331,337.705 186.844 C 337.787 186.355,337.279 186.299,331.507 186.160 C 328.049 186.076,325.118 185.905,324.993 185.779 C 324.868 185.654,325.089 185.551,325.485 185.551 C 326.038 185.551,326.122 185.468,325.847 185.193 C 325.489 184.835,297.110 184.564,289.626 184.846 M148.747 225.700 C 148.504 226.153,148.228 226.285,147.801 226.150 C 146.758 225.819,144.860 226.287,144.904 226.865 C 144.936 227.290,144.594 227.392,142.890 227.466 C 141.104 227.545,140.837 227.632,140.837 228.136 C 140.837 228.635,140.571 228.729,138.935 228.807 C 137.301 228.885,136.992 228.993,136.734 229.582 C 136.472 230.179,136.208 230.266,134.652 230.266 C 133.127 230.266,132.848 230.354,132.712 230.875 C 132.575 231.397,132.297 231.483,130.735 231.483 C 129.172 231.483,128.894 231.568,128.757 232.091 C 128.631 232.575,128.340 232.700,127.341 232.704 C 125.497 232.710,124.715 232.991,124.715 233.648 C 124.715 234.150,124.471 234.221,122.738 234.221 C 120.200 234.221,119.751 235.217,122.128 235.573 C 122.997 235.704,123.606 235.984,123.798 236.341 C 123.981 236.684,124.605 236.987,125.395 237.117 C 126.108 237.234,127.266 237.589,127.968 237.905 C 128.670 238.221,129.560 238.480,129.945 238.481 C 130.331 238.482,131.057 238.703,131.559 238.971 C 132.061 239.240,133.284 239.654,134.277 239.892 C 135.270 240.129,136.228 240.444,136.406 240.591 C 136.584 240.738,137.278 240.957,137.947 241.079 C 138.616 241.200,139.643 241.535,140.228 241.823 C 140.814 242.112,141.884 242.439,142.607 242.550 C 143.330 242.661,144.220 242.934,144.584 243.157 C 144.949 243.380,146.032 243.728,146.991 243.931 C 147.950 244.134,148.814 244.427,148.910 244.583 C 149.193 245.041,150.185 244.908,150.386 244.386 C 150.754 243.425,150.542 227.426,150.146 226.330 C 149.687 225.059,149.206 224.843,148.747 225.700 "
            stroke="none" fill="#2190aa" fill-rule="evenodd"></path>
        <path id="path2"
            d="M30.202 206.844 C 30.075 207.331,29.787 207.452,28.767 207.452 C 27.938 207.452,27.276 207.653,26.876 208.026 C 26.538 208.341,25.674 208.698,24.956 208.819 C 24.047 208.973,23.606 209.214,23.502 209.615 C 23.361 210.152,22.774 210.331,21.546 210.210 C 21.267 210.183,20.955 210.427,20.851 210.752 C 20.731 211.130,20.271 211.417,19.576 211.547 C 18.862 211.681,18.435 211.954,18.334 212.340 C 18.236 212.713,17.916 212.928,17.455 212.928 C 16.933 212.928,16.730 213.098,16.730 213.536 C 16.730 214.111,16.016 214.335,14.700 214.172 C 14.503 214.148,14.259 214.391,14.157 214.712 C 14.056 215.033,13.703 215.366,13.374 215.452 C 13.019 215.545,12.776 215.868,12.776 216.245 C 12.776 216.722,12.584 216.882,12.015 216.882 C 11.597 216.882,11.271 216.985,11.291 217.110 C 11.400 217.801,11.147 218.051,10.156 218.237 C 9.434 218.373,9.005 218.645,8.904 219.032 C 8.820 219.355,8.493 219.620,8.177 219.620 C 7.862 219.620,7.605 219.822,7.605 220.069 C 7.605 220.316,7.262 220.743,6.844 221.017 C 6.426 221.291,6.084 221.681,6.084 221.883 C 6.084 222.086,5.741 222.573,5.323 222.966 C 4.905 223.359,4.563 223.914,4.563 224.200 C 4.563 224.486,4.289 224.792,3.954 224.879 C 3.605 224.970,3.346 225.294,3.346 225.639 C 3.346 225.985,3.087 226.309,2.738 226.400 C 2.282 226.519,2.129 226.815,2.129 227.580 C 2.129 228.347,1.959 228.676,1.445 228.901 C 0.942 229.122,0.735 229.504,0.666 230.342 C 0.614 230.970,0.443 231.483,0.286 231.483 C 0.114 231.483,0.000 235.176,0.000 240.760 C 0.000 246.280,0.115 250.038,0.283 250.038 C 0.439 250.038,0.610 250.346,0.663 250.722 C 0.726 251.162,1.005 251.442,1.445 251.504 C 1.885 251.567,2.129 251.811,2.129 252.188 C 2.129 252.573,2.339 252.776,2.738 252.776 C 3.143 252.776,3.346 252.978,3.346 253.384 C 3.346 253.778,3.549 253.992,3.921 253.992 C 4.281 253.992,4.568 254.277,4.688 254.753 C 4.806 255.224,5.094 255.513,5.446 255.513 C 5.760 255.513,6.085 255.789,6.174 256.130 C 6.263 256.470,6.450 256.727,6.590 256.703 C 7.831 256.484,8.786 256.782,8.876 257.414 C 8.954 257.962,9.198 258.118,10.099 258.192 C 10.902 258.259,11.279 258.458,11.415 258.885 C 11.519 259.214,11.766 259.464,11.962 259.440 C 13.173 259.290,13.968 259.520,14.143 260.070 C 14.248 260.401,14.428 260.659,14.543 260.642 C 16.170 260.411,17.831 260.750,18.103 261.369 C 18.407 262.062,18.594 262.115,20.913 262.173 C 22.005 262.200,22.205 262.302,22.205 262.833 C 22.205 263.248,22.385 263.442,22.738 263.406 C 25.117 263.164,27.376 263.449,27.376 263.991 C 27.376 264.646,28.592 264.934,31.373 264.940 C 32.819 264.942,33.082 265.027,33.046 265.475 C 33.009 265.947,33.376 266.017,36.274 266.094 C 39.406 266.177,39.700 266.267,39.591 267.116 C 39.577 267.224,41.032 267.329,42.824 267.350 C 45.271 267.379,46.166 267.498,46.413 267.827 C 46.981 268.584,48.158 268.838,51.243 268.871 C 53.649 268.896,54.305 269.000,54.601 269.405 C 54.825 269.712,55.171 269.831,55.485 269.711 C 55.791 269.594,55.925 269.635,55.815 269.813 C 55.697 270.006,57.050 270.114,59.566 270.114 C 63.247 270.114,63.514 270.154,63.662 270.722 C 63.794 271.228,64.096 271.338,65.447 271.371 C 70.482 271.497,71.567 271.617,72.105 272.104 C 72.415 272.384,72.825 272.506,73.032 272.378 C 73.268 272.232,73.323 272.276,73.185 272.501 C 73.025 272.760,74.146 272.852,77.475 272.852 C 81.630 272.852,82.012 272.899,82.357 273.451 C 82.952 274.403,117.380 274.417,117.629 273.465 C 117.780 272.888,118.035 272.852,121.988 272.852 C 126.367 272.852,127.148 272.738,127.148 272.098 C 127.148 271.824,128.114 271.651,130.494 271.496 C 133.513 271.301,133.840 271.223,133.840 270.697 C 133.840 270.168,134.081 270.114,136.454 270.114 C 138.813 270.114,139.084 270.055,139.227 269.506 C 139.384 268.907,140.605 268.700,142.890 268.885 C 143.266 268.916,143.574 268.798,143.574 268.624 C 143.574 268.450,143.779 268.387,144.030 268.483 C 144.347 268.605,144.487 268.462,144.487 268.017 C 144.487 267.433,144.657 267.376,146.428 267.376 C 148.086 267.376,148.392 267.291,148.522 266.794 C 148.606 266.473,148.978 266.165,149.349 266.109 C 150.660 265.911,150.865 264.380,150.868 254.753 L 150.871 245.932 149.732 245.886 C 149.106 245.860,147.977 245.612,147.224 245.333 C 146.471 245.054,145.103 244.617,144.183 244.362 C 143.262 244.107,142.373 243.790,142.205 243.658 C 142.038 243.525,141.158 243.260,140.249 243.069 C 139.340 242.877,138.449 242.598,138.268 242.448 C 138.087 242.298,137.120 241.969,136.118 241.718 C 134.265 241.252,132.109 240.574,130.190 239.851 C 129.605 239.631,127.515 238.947,125.546 238.331 C 122.395 237.346,121.911 237.104,121.498 236.306 C 120.862 235.076,117.035 235.050,116.861 236.274 C 116.772 236.902,116.605 236.958,114.808 236.958 C 113.054 236.958,112.852 237.021,112.852 237.567 C 112.852 238.111,112.649 238.175,110.910 238.175 C 109.224 238.175,108.947 238.255,108.809 238.783 C 108.679 239.282,108.394 239.392,107.233 239.392 C 105.636 239.392,104.639 239.805,104.639 240.467 C 104.639 240.810,104.210 240.913,102.785 240.913 C 101.187 240.913,100.910 240.997,100.773 241.521 C 100.641 242.023,100.358 242.129,99.153 242.129 C 97.441 242.129,96.730 242.350,96.730 242.883 C 96.730 243.240,94.089 243.831,93.156 243.684 C 92.947 243.651,92.776 243.903,92.776 244.245 C 92.776 244.803,92.586 244.867,90.922 244.867 C 89.324 244.867,89.047 244.951,88.909 245.475 C 88.759 246.051,88.484 246.085,83.843 246.108 C 75.698 246.147,75.159 246.110,74.503 245.454 C 74.097 245.048,73.494 244.867,72.548 244.867 C 71.381 244.867,71.179 244.777,71.179 244.259 C 71.179 243.853,70.976 243.650,70.570 243.650 C 70.229 243.650,69.962 243.447,69.962 243.187 C 69.962 242.933,69.631 242.574,69.227 242.390 C 68.823 242.206,68.425 241.798,68.343 241.484 C 68.261 241.170,67.976 240.913,67.709 240.913 C 67.310 240.913,67.225 240.523,67.226 238.707 L 67.228 236.502 68.367 235.742 C 68.993 235.323,69.666 234.776,69.861 234.525 C 70.057 234.274,70.399 234.068,70.622 234.068 C 70.844 234.068,71.070 233.760,71.124 233.384 C 71.213 232.755,71.380 232.700,73.177 232.700 C 74.930 232.700,75.133 232.637,75.133 232.091 C 75.133 231.613,75.344 231.477,76.122 231.458 C 77.990 231.410,78.571 231.273,78.918 230.798 C 79.109 230.536,79.927 230.223,80.735 230.102 C 81.570 229.977,82.414 229.637,82.690 229.313 C 83.023 228.926,83.584 228.745,84.458 228.745 C 85.471 228.745,85.779 228.618,85.932 228.137 C 86.038 227.802,86.269 227.529,86.446 227.529 C 86.649 227.529,86.632 227.367,86.399 227.086 C 86.197 226.842,86.109 226.517,86.204 226.363 C 86.299 226.209,85.760 225.911,85.006 225.700 C 84.252 225.489,83.567 225.207,83.485 225.074 C 83.403 224.941,82.551 224.670,81.592 224.473 C 80.633 224.276,79.574 223.964,79.240 223.780 C 78.905 223.596,77.810 223.214,76.806 222.929 C 75.802 222.645,74.091 222.132,73.004 221.789 C 68.553 220.385,67.946 220.190,67.072 219.885 C 66.570 219.710,65.407 219.361,64.487 219.109 C 63.567 218.857,62.667 218.531,62.489 218.384 C 62.310 218.237,61.420 217.959,60.512 217.766 C 59.603 217.574,58.517 217.244,58.099 217.034 C 57.681 216.823,56.859 216.556,56.274 216.440 C 55.688 216.323,54.525 215.974,53.688 215.662 C 51.556 214.868,49.336 214.160,47.909 213.819 C 47.240 213.658,46.213 213.336,45.627 213.103 C 45.042 212.869,43.125 212.243,41.369 211.711 C 39.612 211.179,37.696 210.556,37.110 210.326 C 36.525 210.097,35.447 209.757,34.715 209.571 C 33.286 209.209,31.331 207.572,31.331 206.737 C 31.331 206.025,30.393 206.114,30.202 206.844 M215.665 285.627 L 215.665 304.183 218.859 304.183 C 220.786 304.183,222.053 304.062,222.053 303.878 C 222.053 303.711,222.567 303.572,223.194 303.570 C 224.855 303.564,225.659 303.281,225.866 302.629 C 226.015 302.158,226.347 302.053,227.690 302.053 C 229.021 302.053,229.394 301.938,229.658 301.445 C 229.902 300.989,230.295 300.837,231.222 300.837 C 232.093 300.837,232.723 300.615,233.348 300.089 C 233.837 299.677,234.439 299.418,234.686 299.513 C 235.495 299.824,236.654 299.346,236.654 298.701 C 236.654 298.163,236.863 298.099,238.631 298.099 C 240.406 298.099,240.608 298.036,240.608 297.490 C 240.608 296.972,240.823 296.877,242.053 296.847 C 244.333 296.792,244.405 296.768,244.508 296.046 C 244.597 295.417,244.764 295.361,246.561 295.361 C 248.314 295.361,248.517 295.298,248.517 294.753 C 248.517 294.211,248.720 294.144,250.371 294.144 C 251.968 294.144,252.246 294.061,252.383 293.536 C 252.507 293.062,252.798 292.928,253.704 292.928 C 255.211 292.928,256.426 292.456,256.426 291.871 C 256.426 291.506,256.821 291.407,258.279 291.407 C 259.877 291.407,260.155 291.323,260.292 290.798 C 260.420 290.311,260.707 290.190,261.744 290.190 C 262.568 290.190,263.311 289.974,263.796 289.592 C 264.215 289.263,265.141 288.900,265.855 288.786 C 266.739 288.645,267.199 288.403,267.297 288.029 C 267.412 287.588,267.809 287.462,269.309 287.390 C 270.480 287.334,271.179 287.168,271.179 286.946 C 271.179 286.750,271.281 286.488,271.407 286.362 C 272.200 285.570,271.595 284.846,269.582 284.177 C 266.761 283.239,262.930 282.028,257.947 280.499 C 255.458 279.735,253.194 279.005,252.015 278.587 C 251.513 278.409,250.281 278.018,249.278 277.719 C 248.274 277.419,247.042 277.028,246.540 276.850 C 245.402 276.447,243.606 275.878,236.806 273.766 C 234.424 273.027,232.165 272.297,231.027 271.901 C 230.525 271.726,229.361 271.376,228.441 271.124 C 227.521 270.873,226.622 270.546,226.443 270.399 C 226.264 270.252,225.375 269.974,224.466 269.782 C 223.557 269.589,222.467 269.255,222.043 269.039 C 221.619 268.822,220.730 268.544,220.069 268.420 C 219.407 268.295,218.317 267.945,217.646 267.640 C 216.975 267.335,216.255 267.083,216.046 267.079 C 215.746 267.074,215.665 270.982,215.665 285.627 "
            stroke="none" fill="#f3c30c" fill-rule="evenodd"></path>
        <path id="path3"
            d="M150.722 185.643 C 150.722 195.212,150.621 203.384,150.497 203.802 C 150.373 204.221,150.550 204.015,150.891 203.346 C 151.512 202.126,151.542 169.113,150.923 168.456 C 150.813 168.339,150.722 176.073,150.722 185.643 M215.600 204.487 C 214.460 206.483,215.016 243.489,216.169 242.336 C 216.254 242.251,216.175 241.905,215.994 241.567 C 215.547 240.731,215.533 205.226,215.980 204.391 C 216.422 203.565,216.077 203.652,215.600 204.487 M31.372 206.661 C 31.309 207.538,33.205 209.188,34.715 209.571 C 35.447 209.757,36.525 210.097,37.110 210.326 C 37.696 210.556,39.612 211.179,41.369 211.711 C 43.125 212.243,45.042 212.869,45.627 213.103 C 46.213 213.336,47.240 213.658,47.909 213.819 C 49.336 214.160,51.556 214.868,53.688 215.662 C 54.525 215.974,55.688 216.323,56.274 216.440 C 56.859 216.556,57.681 216.823,58.099 217.034 C 58.517 217.244,59.603 217.574,60.512 217.766 C 61.420 217.959,62.310 218.237,62.489 218.384 C 62.667 218.531,63.567 218.857,64.487 219.109 C 65.407 219.361,66.570 219.710,67.072 219.885 C 67.946 220.190,68.553 220.385,73.004 221.789 C 74.091 222.132,75.802 222.645,76.806 222.929 C 77.810 223.214,78.905 223.596,79.240 223.780 C 79.574 223.964,80.633 224.276,81.592 224.473 C 82.551 224.670,83.403 224.941,83.485 225.074 C 83.567 225.207,84.244 225.486,84.989 225.695 C 85.834 225.931,86.289 226.215,86.200 226.448 C 86.121 226.654,86.268 226.998,86.526 227.213 C 86.930 227.548,86.996 227.490,86.996 226.802 C 86.996 225.861,84.999 224.817,80.608 223.462 C 79.186 223.024,76.380 222.138,74.373 221.493 C 72.365 220.849,69.490 219.938,67.985 219.469 C 66.479 219.001,63.673 218.109,61.749 217.487 C 59.825 216.866,57.019 215.990,55.513 215.541 C 54.008 215.091,52.091 214.467,51.255 214.153 C 50.418 213.839,49.255 213.485,48.670 213.366 C 48.086 213.248,47.196 212.977,46.693 212.765 C 45.716 212.353,42.605 211.363,38.175 210.053 C 36.669 209.608,35.095 209.047,34.677 208.806 C 34.259 208.565,33.410 208.144,32.792 207.870 C 32.117 207.572,31.616 207.115,31.540 206.728 C 31.432 206.176,31.408 206.167,31.372 206.661 M150.560 226.596 C 150.756 226.963,150.875 230.554,150.875 236.157 C 150.875 246.443,151.030 245.954,148.097 244.915 C 147.199 244.597,145.232 243.964,143.726 243.508 C 142.221 243.053,140.304 242.434,139.468 242.133 C 138.631 241.832,136.715 241.214,135.209 240.761 C 130.766 239.422,127.677 238.439,126.540 238.002 C 125.954 237.777,124.986 237.467,124.388 237.315 C 123.789 237.162,122.940 236.677,122.500 236.237 C 121.422 235.159,120.928 235.203,121.508 236.325 C 121.909 237.100,122.421 237.354,125.546 238.331 C 127.515 238.947,129.605 239.631,130.190 239.851 C 132.109 240.574,134.265 241.252,136.118 241.718 C 137.120 241.969,138.087 242.298,138.268 242.448 C 138.449 242.598,139.340 242.877,140.249 243.069 C 141.158 243.260,142.040 243.528,142.209 243.663 C 142.379 243.799,143.200 244.076,144.034 244.280 C 144.869 244.485,145.894 244.819,146.312 245.023 C 148.345 246.015,150.337 246.214,150.928 245.485 C 152.119 244.014,151.631 226.008,150.400 226.008 C 150.314 226.008,150.386 226.272,150.560 226.596 M215.564 263.016 C 215.290 263.291,215.314 266.234,215.594 266.619 C 215.877 267.008,218.827 268.177,220.228 268.455 C 220.814 268.571,221.635 268.839,222.053 269.049 C 222.471 269.260,223.557 269.589,224.466 269.782 C 225.375 269.974,226.264 270.252,226.443 270.399 C 226.622 270.546,227.521 270.873,228.441 271.124 C 229.361 271.376,230.525 271.726,231.027 271.901 C 232.165 272.297,234.424 273.027,236.806 273.766 C 243.606 275.878,245.402 276.447,246.540 276.850 C 247.042 277.028,248.274 277.419,249.278 277.719 C 250.281 278.018,251.513 278.409,252.015 278.587 C 253.194 279.005,255.458 279.735,257.947 280.499 C 262.930 282.028,266.761 283.239,269.582 284.177 C 271.311 284.751,271.635 284.968,271.635 285.547 C 271.635 286.471,272.384 286.433,272.437 285.506 C 272.495 284.500,270.858 283.824,260.989 280.779 C 259.232 280.237,257.316 279.614,256.730 279.395 C 256.144 279.176,254.433 278.621,252.928 278.161 C 251.422 277.701,248.616 276.818,246.692 276.199 C 244.768 275.581,241.962 274.699,240.456 274.239 C 238.951 273.779,237.034 273.156,236.198 272.855 C 235.361 272.554,233.445 271.937,231.939 271.484 C 230.433 271.030,227.627 270.145,225.703 269.517 C 223.779 268.888,220.802 267.934,219.088 267.397 C 215.677 266.329,215.463 266.105,215.723 263.878 C 215.859 262.718,215.859 262.721,215.564 263.016 "
            stroke="none" fill="#81b954" fill-rule="evenodd"></path>
        <path id="path4"
            d="M150.418 185.873 C 150.418 195.721,150.511 203.545,150.625 203.258 C 150.906 202.550,150.923 168.759,150.642 168.318 C 150.519 168.125,150.418 176.024,150.418 185.873 M216.018 204.273 C 215.494 205.425,215.519 240.494,216.046 241.747 C 216.355 242.484,216.426 239.016,216.426 223.075 C 216.426 212.308,216.414 203.498,216.399 203.498 C 216.384 203.498,216.213 203.847,216.018 204.273 M31.656 206.722 C 31.641 207.176,31.963 207.505,32.776 207.864 C 33.403 208.141,34.259 208.565,34.677 208.806 C 35.095 209.047,36.669 209.608,38.175 210.053 C 42.605 211.363,45.716 212.353,46.693 212.765 C 47.196 212.977,48.086 213.248,48.670 213.366 C 49.255 213.485,50.418 213.839,51.255 214.153 C 52.091 214.467,54.008 215.091,55.513 215.541 C 57.019 215.990,59.825 216.866,61.749 217.487 C 63.673 218.109,66.479 219.001,67.985 219.469 C 69.490 219.938,72.365 220.849,74.373 221.493 C 76.380 222.138,79.186 223.024,80.608 223.462 C 84.884 224.781,86.996 225.867,86.996 226.746 C 86.996 227.279,87.154 227.479,87.551 227.449 C 89.518 227.301,85.762 224.127,83.156 223.736 C 82.368 223.618,81.438 223.338,81.090 223.114 C 80.741 222.890,79.910 222.607,79.243 222.484 C 78.575 222.362,77.480 222.013,76.809 221.708 C 76.138 221.403,75.243 221.151,74.821 221.147 C 74.398 221.144,73.770 220.943,73.425 220.702 C 73.081 220.461,71.990 220.061,71.000 219.815 C 69.172 219.359,67.381 218.779,64.633 217.755 C 63.793 217.442,62.835 217.185,62.504 217.184 C 62.172 217.183,61.491 216.969,60.989 216.707 C 60.487 216.445,59.324 216.044,58.404 215.814 C 57.483 215.585,56.046 215.170,55.209 214.891 C 54.373 214.613,53.346 214.275,52.928 214.141 C 52.510 214.007,51.757 213.753,51.255 213.577 C 49.319 212.897,47.232 212.259,45.593 211.845 C 44.654 211.608,43.490 211.208,43.007 210.956 C 42.524 210.704,41.856 210.494,41.521 210.489 C 41.186 210.485,40.336 210.219,39.632 209.900 C 38.928 209.580,37.739 209.227,36.989 209.114 C 36.240 209.002,35.400 208.660,35.124 208.355 C 34.848 208.050,34.104 207.713,33.470 207.606 C 32.710 207.478,32.209 207.186,31.997 206.748 C 31.679 206.089,31.676 206.088,31.656 206.722 M150.168 226.160 C 150.453 226.858,150.687 243.146,150.427 244.182 C 150.253 244.874,149.253 245.139,148.910 244.583 C 148.814 244.427,147.950 244.134,146.991 243.931 C 146.032 243.728,144.949 243.380,144.584 243.157 C 144.220 242.934,143.330 242.661,142.607 242.550 C 141.884 242.439,140.814 242.112,140.228 241.823 C 139.643 241.535,138.616 241.200,137.947 241.079 C 137.278 240.957,136.584 240.738,136.406 240.591 C 136.228 240.444,135.270 240.129,134.277 239.892 C 133.284 239.654,132.061 239.240,131.559 238.971 C 131.057 238.703,130.304 238.481,129.886 238.479 C 129.468 238.477,128.718 238.263,128.219 238.003 C 127.721 237.743,126.626 237.388,125.786 237.214 C 124.946 237.039,124.053 236.654,123.802 236.357 C 123.551 236.060,122.974 235.731,122.520 235.624 L 121.694 235.431 122.497 236.234 C 122.939 236.675,123.789 237.162,124.388 237.315 C 124.986 237.467,125.954 237.777,126.540 238.002 C 127.677 238.439,130.766 239.422,135.209 240.761 C 136.715 241.214,138.631 241.832,139.468 242.133 C 140.304 242.434,142.221 243.053,143.726 243.508 C 145.232 243.964,147.199 244.597,148.097 244.915 C 151.032 245.955,150.876 246.452,150.864 236.101 C 150.855 228.534,150.777 226.949,150.386 226.312 C 150.130 225.894,150.032 225.825,150.168 226.160 M215.980 262.794 C 215.636 263.437,215.560 265.227,215.845 265.970 C 215.950 266.244,217.310 266.841,219.115 267.406 C 220.815 267.938,223.779 268.888,225.703 269.517 C 227.627 270.145,230.433 271.030,231.939 271.484 C 233.445 271.937,235.361 272.554,236.198 272.855 C 237.034 273.156,238.951 273.779,240.456 274.239 C 241.962 274.699,244.768 275.581,246.692 276.199 C 248.616 276.818,251.422 277.701,252.928 278.161 C 254.433 278.621,256.144 279.176,256.730 279.395 C 257.316 279.614,259.232 280.237,260.989 280.779 C 270.171 283.612,272.660 284.592,272.398 285.274 C 272.243 285.677,272.686 286.218,273.180 286.231 C 273.576 286.242,273.272 284.845,272.818 284.563 C 271.150 283.527,269.193 282.639,268.168 282.453 C 267.517 282.334,266.695 282.057,266.343 281.837 C 265.991 281.617,265.156 281.346,264.487 281.235 C 263.817 281.124,262.586 280.784,261.749 280.480 C 259.043 279.496,257.213 278.901,255.970 278.600 C 255.300 278.438,254.068 278.052,253.232 277.742 C 252.395 277.433,250.684 276.875,249.430 276.502 C 248.175 276.129,246.464 275.572,245.627 275.265 C 244.791 274.957,243.696 274.619,243.194 274.514 C 242.692 274.408,241.640 274.060,240.856 273.739 C 240.072 273.418,239.114 273.155,238.727 273.154 C 238.340 273.153,237.612 272.932,237.110 272.663 C 236.608 272.395,235.513 271.996,234.677 271.778 C 233.840 271.559,232.471 271.150,231.635 270.867 C 230.798 270.585,229.703 270.216,229.202 270.048 C 228.700 269.879,227.605 269.550,226.768 269.317 C 225.932 269.084,224.837 268.700,224.335 268.464 C 223.833 268.228,222.876 267.934,222.208 267.810 C 221.541 267.687,220.446 267.336,219.775 267.031 C 219.104 266.727,218.195 266.474,217.756 266.471 C 216.544 266.460,216.178 265.792,216.337 263.878 C 216.489 262.044,216.448 261.919,215.980 262.794 "
            stroke="none" fill="#64b46c" fill-rule="evenodd"></path>
    </g>
</svg>